<?xml version="1.0" standalone="no"?>
<!DOCTYPE svg PUBLIC "-//W3C//DTD SVG 20010904//EN"
 "http://www.w3.org/TR/2001/REC-SVG-20010904/DTD/svg10.dtd">
<svg version="1.0" xmlns="http://www.w3.org/2000/svg"
 width="256.000000pt" height="256.000000pt" viewBox="0 0 256.000000 256.000000"
 preserveAspectRatio="xMidYMid meet">
<metadata>
Created by potrace 1.14, written by Peter Selinger 2001-2017
</metadata>
<g transform="translate(0.000000,256.000000) scale(0.100000,-0.100000)"
fill="#000000" stroke="none">
<path d="M1695 2536 c-76 -11 -246 -70 -253 -88 -2 -4 -8 -8 -13 -8 -18 0
-113 -76 -164 -131 -95 -101 -160 -235 -185 -383 -12 -64 -9 -232 4 -286 24
-98 92 -260 116 -275 6 -4 50 20 98 53 48 32 119 74 157 92 39 18 78 40 88 48
16 14 16 17 -7 56 -99 169 -54 384 98 469 174 97 384 35 471 -140 26 -51 29
-69 30 -148 0 -82 -3 -96 -32 -154 -18 -35 -33 -68 -33 -72 0 -4 30 -24 68
-45 37 -20 106 -64 154 -97 101 -69 96 -70 155 31 73 126 106 230 106 342 1
96 -6 139 -38 233 -117 350 -456 557 -820 503z"/>
<path d="M640 2530 c-88 -9 -222 -54 -281 -96 -27 -19 -52 -34 -57 -34 -16 0
-142 -138 -181 -199 -193 -302 -131 -705 146 -946 114 -100 255 -157 413 -170
41 -3 89 -8 105 -11 38 -7 131 -42 171 -66 37 -22 42 -18 69 57 10 28 38 87
62 132 l43 81 -39 79 c-21 43 -49 108 -61 146 -13 37 -26 67 -31 67 -4 0 -28
-14 -53 -30 -92 -62 -213 -74 -326 -31 -181 68 -254 301 -148 472 100 163 322
195 486 71 26 -20 35 -22 47 -12 8 7 15 17 15 23 0 17 62 148 90 192 14 22 34
57 45 77 18 35 18 38 2 56 -19 21 -162 94 -227 115 -80 26 -190 36 -290 27z"/>
<path d="M723 1950 c-97 -22 -145 -111 -109 -203 27 -69 99 -105 182 -89 36 7
91 64 103 107 28 103 -73 209 -176 185z"/>
<path d="M1798 1955 c-2 -2 -15 -5 -28 -7 -56 -8 -108 -66 -115 -126 -10 -95
83 -181 179 -165 65 10 124 87 120 155 -3 56 -46 118 -92 132 -31 10 -60 15
-64 11z"/>
<path d="M1789 1506 c-2 -2 -31 -6 -64 -7 -82 -4 -159 -23 -254 -63 -180 -76
-313 -221 -373 -406 -17 -52 -30 -135 -43 -278 -21 -238 -224 -372 -440 -291
-104 39 -182 149 -192 270 -6 66 8 128 44 200 13 26 23 51 23 57 0 5 -24 22
-54 36 -30 15 -96 56 -147 92 -51 37 -98 68 -105 71 -25 9 -118 -154 -155
-273 -38 -122 -28 -285 26 -426 121 -315 434 -502 766 -458 108 14 167 33 256
82 201 109 351 312 388 523 2 17 7 41 10 55 2 13 7 62 10 108 7 121 36 177
137 258 15 12 68 31 109 40 106 21 234 -19 305 -98 71 -79 100 -164 91 -267
-10 -120 -78 -216 -192 -271 -74 -36 -188 -35 -267 2 -32 15 -70 39 -85 54
-18 18 -31 24 -40 18 -8 -5 -33 -54 -57 -109 -23 -55 -63 -131 -89 -169 -55
-82 -55 -81 47 -134 198 -102 393 -124 581 -65 174 54 337 180 412 318 11 22
30 56 40 75 20 37 52 140 61 200 22 138 -11 307 -86 455 -106 207 -340 370
-563 390 -35 4 -71 8 -80 11 -8 2 -17 2 -20 0z"/>
<path d="M1728 907 c-69 -36 -97 -106 -71 -182 17 -49 38 -73 82 -91 108 -45
214 26 210 143 -5 113 -120 181 -221 130z"/>
<path d="M685 910 c-11 -4 -32 -21 -47 -36 -89 -96 -20 -254 110 -254 74 0
141 69 145 147 3 99 -117 181 -208 143z"/>
</g>
</svg>
